<svg xmlns="http://www.w3.org/2000/svg" viewBox="0 0 100 100" fill="none">
  <!-- Outer Glowing Aperture Ring -->
  <circle cx="50" cy="50" r="44" stroke="#10b981" stroke-width="3" stroke-dasharray="80 10 30 10" opacity="0.9"/>
  <circle cx="50" cy="50" r="38" stroke="#38bdf8" stroke-width="1.5" stroke-dasharray="5 3" opacity="0.6"/>

  <!-- Aperture Lens Blades -->
  <path d="M50 6 A44 44 0 0 1 88 28 L62 42 L50 6 Z" stroke="#10b981" stroke-width="1.5" fill="#10b981" fill-opacity="0.1"/>
  <path d="M88 28 A44 44 0 0 1 94 66 L64 56 L88 28 Z" stroke="#10b981" stroke-width="1.5" fill="#10b981" fill-opacity="0.1"/>
  <path d="M94 66 A44 44 0 0 1 62 92 L46 64 L94 66 Z" stroke="#10b981" stroke-width="1.5" fill="#10b981" fill-opacity="0.1"/>
  <path d="M62 92 A44 44 0 0 1 20 84 L38 58 L62 92 Z" stroke="#10b981" stroke-width="1.5" fill="#10b981" fill-opacity="0.1"/>
  <path d="M20 84 A44 44 0 0 1 8 46 L38 42 L20 84 Z" stroke="#10b981" stroke-width="1.5" fill="#10b981" fill-opacity="0.1"/>
  <path d="M8 46 A44 44 0 0 1 50 6 L50 38 L8 46 Z" stroke="#10b981" stroke-width="1.5" fill="#10b981" fill-opacity="0.1"/>

  <!-- Center Core Graph & Code Brackets -->
  <path d="M 38 42 C 34 42 32 40 32 36 L 32 46 C 32 48 30 50 27 50 C 30 50 32 52 32 54 L 32 64 C 32 68 34 70 38 70" stroke="#38bdf8" stroke-width="3.5" stroke-linecap="round" fill="none"/>
  
  <path d="M 62 42 C 66 42 68 40 68 36 L 68 46 C 68 48 70 50 73 50 C 70 50 68 52 68 54 L 68 64 C 68 68 66 70 62 70" stroke="#38bdf8" stroke-width="3.5" stroke-linecap="round" fill="none"/>

  <!-- Graph Node Connections in Center -->
  <line x1="42" y1="50" x2="52" y2="42" stroke="#10b981" stroke-width="2.5"/>
  <line x1="42" y1="50" x2="52" y2="58" stroke="#10b981" stroke-width="2.5"/>
  <line x1="52" y1="42" x2="58" y2="50" stroke="#10b981" stroke-width="2.5"/>
  <line x1="52" y1="58" x2="58" y2="50" stroke="#10b981" stroke-width="2.5"/>

  <circle cx="42" cy="50" r="4" fill="#10b981"/>
  <circle cx="52" cy="42" r="4" fill="#38bdf8"/>
  <circle cx="52" cy="58" r="4" fill="#38bdf8"/>
  <circle cx="58" cy="50" r="4.5" fill="#c084fc"/>
</svg>
